<?xml version="1.0" encoding="utf-8"?>
<!-- Generator: Adobe Illustrator 26.4.0, SVG Export Plug-In . SVG Version: 6.00 Build 0)  -->
<svg version="1.1" id="Layer_1" xmlns="http://www.w3.org/2000/svg" xmlns:xlink="http://www.w3.org/1999/xlink" x="0px" y="0px"
	 viewBox="0 0 97.19 39.99" style="enable-background:new 0 0 97.19 39.99;" xml:space="preserve">
<style type="text/css">
	.st0{fill:#AA1900;}
	.st1{fill:#04006A;}
</style>
<path class="st0" d="M199.53,141.92l0.66,0.28C199.97,142.1,199.75,142.01,199.53,141.92C199.53,141.92,199.53,141.92,199.53,141.92
	z"/>
<path d="M95.2,0c0,0-42.89,18.57-46.92,20.26c-4.03,1.69-6.15,1.04-9.39-0.31c-1.29-0.54-3.92-1.64-6.61-2.77
	c-1.49-0.74-2.95-1.35-4.39-1.85c-1.62-0.56-3.2-0.98-4.76-1.24c-1.44-0.24-2.85-0.37-4.24-0.36c-3.42,0.04-6.57,0.56-9.36,1.55
	c-2.13,0.75-8.45,3.39-9.4,8.23C0,24.15-0.04,24.84,0.05,25.58c0.04,0.3,0.1,0.6,0.17,0.89c0,0.02,0.01,0.03,0.01,0.05
	c0.16,0.6,0.38,1.19,0.68,1.75c0.97,1.8,2.73,2.9,4.53,3.75c2.13,1,4.3,1.94,6.45,2.9c2.37,1.06,4.76,2.08,7.18,3
	c1.11,0.42,2.23,0.82,3.36,1.19c0.46,0.15,0.91,0.3,1.37,0.44c0.05,0.01,0.1,0.03,0.15,0.04c1.88,0.51,3.5,0.57,5.16,0.02
	c2.36-0.79,10.25-5.12,14.61-7.34C48.1,30.04,97.19,3.82,97.19,3.82L95.2,0z M30.06,27.24c-0.92,0.76-1.97,1.34-3.11,1.7
	c-1.6,0.67-2.86,0.73-4.54,0.31c-0.43-0.11-0.86-0.32-1.27-0.47c-0.43-0.17-0.87-0.33-1.3-0.51c-0.87-0.35-1.74-0.71-2.61-1.07
	c-1.84-0.78-3.66-1.59-5.47-2.41c-0.27-0.12-0.53-0.24-0.8-0.36c0.07,0.03,0.5-0.24,0.59-0.28c0.22-0.09,0.43-0.18,0.65-0.27
	c0.41-0.16,0.83-0.3,1.26-0.42c0.89-0.26,1.79-0.44,2.7-0.55c0.94-0.12,1.88-0.17,2.82-0.19c3.23-0.06,6.96,1.13,11.03,3.44
	C30.36,26.58,30.31,26.97,30.06,27.24z"/>
<path class="st1" d="M196.07,138.65C196.07,138.64,196.07,138.64,196.07,138.65C196.07,138.64,196.07,138.64,196.07,138.65z"/>
</svg>
