<svg xmlns="http://www.w3.org/2000/svg" width="24" height="24" viewBox="0 0 24 24">
  <g id="icon_페이스북" transform="translate(-328.042 -650.117)">
    <path id="패스_92" data-name="패스 92" d="M339.063,659.918h1.958v-1.9a5.083,5.083,0,0,1,.631-2.933,3.481,3.481,0,0,1,3.038-1.424,12.337,12.337,0,0,1,3.51.352l-.49,2.9a6.6,6.6,0,0,0-1.577-.236c-.761,0-1.443.272-1.443,1.034v2.211h3.121l-.217,2.832h-2.9v9.84h-3.669v-9.84h-1.958v-2.832" transform="translate(-3.806 -1.222)" fill="#757575"/>
    <rect id="사각형_101" data-name="사각형 101" width="24" height="24" transform="translate(328.042 650.117)" fill="none"/>
  </g>
</svg>
