<svg xmlns="http://www.w3.org/2000/svg" width="24" height="24" viewBox="0 0 24 24">
  <g id="icon_인스타그램" transform="translate(-416.765 -651.574)">
    <rect id="사각형_103" data-name="사각형 103" width="24" height="24" transform="translate(416.765 651.574)" fill="none"/>
    <g id="그룹_67" data-name="그룹 67" transform="translate(418.124 652.933)">
      <path id="패스_95" data-name="패스 95" d="M433.528,653.613H425.36a6.557,6.557,0,0,0-6.557,6.558v8.167a6.557,6.557,0,0,0,6.557,6.557h8.168a6.557,6.557,0,0,0,6.557-6.557v-8.167A6.557,6.557,0,0,0,433.528,653.613Zm4.515,13.941a5.3,5.3,0,0,1-5.3,5.3h-6.6a5.3,5.3,0,0,1-5.3-5.3v-6.6a5.3,5.3,0,0,1,5.3-5.3h6.6a5.3,5.3,0,0,1,5.3,5.3Z" transform="translate(-418.803 -653.613)" fill="#767576"/>
      <path id="패스_96" data-name="패스 96" d="M432.39,661.222A5.606,5.606,0,1,0,438,666.827,5.605,5.605,0,0,0,432.39,661.222Zm0,8.978a3.373,3.373,0,1,1,3.373-3.373A3.373,3.373,0,0,1,432.39,670.2Z" transform="translate(-421.463 -656.149)" fill="#767576"/>
      <path id="패스_97" data-name="패스 97" d="M443.733,660.377a1.425,1.425,0,1,1-1.426-1.426A1.427,1.427,0,0,1,443.733,660.377Z" transform="translate(-426.163 -655.392)" fill="#767576"/>
    </g>
  </g>
</svg>
