<svg xmlns="http://www.w3.org/2000/svg" width="78.415" height="30" viewBox="0 0 78.415 30">
  <g id="icon_01" transform="translate(-447 -6258)">
    <path id="icon" d="M319.977,345.787l8.555-3.495s10.373,4.35,12.412,5.083,3.184.86,4.772.2a6.914,6.914,0,0,0,2.329-1.274c.308-.33.227-.914-.959-1.444s-12.1-5.2-12.1-5.2l8.555-3.507s8.7,3.68,11.128,4.688,4.022,1.5,7.045.23S396.9,325.869,396.9,325.869l1.494,2.864S361.577,348.4,358.3,350.067s-9.19,4.912-10.961,5.5-3.485.264-5.8-.677S319.977,345.787,319.977,345.787Z" transform="translate(127.023 5932.131)" fill="#222"/>
  </g>
</svg>
