<svg xmlns="http://www.w3.org/2000/svg" width="83.642" height="32" viewBox="0 0 83.642 32">
  <g id="logo" transform="translate(-140 -40)">
    <path id="패스_102" data-name="패스 102" d="M319.977,347.115l9.125-3.728s11.065,4.64,13.24,5.422,3.4.917,5.09.209a7.374,7.374,0,0,0,2.484-1.359c.329-.352.242-.975-1.023-1.54s-12.912-5.548-12.912-5.548l9.125-3.741s9.278,3.925,11.87,5,4.29,1.6,7.515.245,37.533-16.207,37.533-16.207l1.594,3.055s-39.269,20.982-42.764,22.757-9.8,5.24-11.692,5.871-3.718.281-6.19-.722S319.977,347.115,319.977,347.115Z" transform="translate(-179.977 -285.869)" fill="#fff"/>
  </g>
</svg>
