<svg xmlns="http://www.w3.org/2000/svg" width="25" height="24" viewBox="0 0 25 24">
  <g id="icon_유튜브" transform="translate(-373.304 -650.117)">
    <g id="그룹_65" data-name="그룹 65" transform="translate(373.804 653.659)">
      <path id="빼기_4" data-name="빼기 4" d="M12,16.916c-.075,0-7.526-.006-9.376-.506A3.015,3.015,0,0,1,.5,14.274,31.874,31.874,0,0,1,0,8.458,31.864,31.864,0,0,1,.5,2.642,3.014,3.014,0,0,1,2.623.5C4.473.006,11.924,0,12,0s7.527.006,9.378.5A3.014,3.014,0,0,1,23.5,2.642,31.791,31.791,0,0,1,24,8.458a31.8,31.8,0,0,1-.5,5.817,3.014,3.014,0,0,1-2.121,2.136C19.526,16.91,12.074,16.916,12,16.916ZM9.6,4.833v7.25l6.235-3.625L9.6,4.833Z" fill="#767576" stroke="rgba(0,0,0,0)" stroke-width="1"/>
    </g>
    <rect id="사각형_102" data-name="사각형 102" width="23.836" height="24" transform="translate(373.886 650.117)" fill="none"/>
  </g>
</svg>
