<svg xmlns="http://www.w3.org/2000/svg" width="104.553" height="40" viewBox="0 0 104.553 40">
  <path id="logo" d="M319.977,352.427l11.406-4.66s13.831,5.8,16.55,6.778,4.245,1.146,6.363.261a9.218,9.218,0,0,0,3.105-1.7c.411-.439.3-1.219-1.278-1.925s-16.14-6.935-16.14-6.935l11.407-4.676s11.6,4.906,14.838,6.25,5.363,2,9.393.306,46.917-20.259,46.917-20.259l1.993,3.818s-49.086,26.227-53.455,28.446-12.253,6.55-14.615,7.338-4.647.352-7.737-.9S319.977,352.427,319.977,352.427Z" transform="translate(-319.977 -325.869)" fill="#fff"/>
</svg>
